<svg width="36" height="40" viewBox="0 0 36 40" fill="none" xmlns="http://www.w3.org/2000/svg">
<g id="facebook">
<ellipse id="Ellipse 23" cx="17.9945" cy="19.9268" rx="17.9945" ry="19.9268" fill="white"/>
<g id="&#240;&#159;&#166;&#134; icon &#34;Facebook Square&#34;">
<path id="Vector" d="M23.4408 12.1587H11.9382C11.5222 12.1587 11.1233 12.3417 10.8291 12.6674C10.5349 12.9932 10.3697 13.435 10.3697 13.8957V26.6334C10.3697 27.0941 10.5349 27.5359 10.8291 27.8616C11.1233 28.1873 11.5222 28.3703 11.9382 28.3703H16.4232V22.8587H14.3645V20.2645H16.4232V18.2873C16.4232 16.0383 17.6323 14.796 19.4841 14.796C20.371 14.796 21.2984 14.9711 21.2984 14.9711V17.1785H20.2766C19.2698 17.1785 18.9557 17.8704 18.9557 18.58V20.2645H21.2033L20.8439 22.8587H18.9557V28.3703H23.4408C23.8568 28.3703 24.2557 28.1873 24.5499 27.8616C24.844 27.5359 25.0093 27.0941 25.0093 26.6334V13.8957C25.0093 13.435 24.844 12.9932 24.5499 12.6674C24.2557 12.3417 23.8568 12.1587 23.4408 12.1587Z" fill="#0573BD"/>
</g>
</g>
</svg>
