<svg width="197" height="188" viewBox="0 0 197 188" fill="none" xmlns="http://www.w3.org/2000/svg">
<ellipse cx="98.4235" cy="94" rx="98.4235" ry="94" fill="white"/>
<path d="M126.171 105.614L113.297 100.345C112.747 100.121 112.136 100.074 111.555 100.21C110.975 100.347 110.456 100.66 110.078 101.102L104.377 107.755C95.4293 103.726 88.2285 96.8486 84.0097 88.3031L90.9754 82.858C91.4394 82.4976 91.7679 82.0026 91.911 81.448C92.0541 80.8933 92.0041 80.3093 91.7686 79.7842L86.2512 67.4889C85.9927 66.9229 85.5355 66.4607 84.9584 66.1822C84.3814 65.9036 83.7206 65.8261 83.0901 65.9629L71.1358 68.5977C70.5279 68.7317 69.9856 69.0586 69.5973 69.5249C69.209 69.9913 68.9977 70.5696 68.9978 71.1654C68.9978 99.3239 92.895 122.103 122.333 122.103C122.957 122.104 123.562 121.902 124.051 121.531C124.539 121.16 124.882 120.642 125.022 120.061L127.781 108.644C127.923 108.039 127.841 107.406 127.547 106.853C127.253 106.299 126.766 105.862 126.171 105.614Z" fill="#0573BD"/>
</svg>
